<svg xmlns:dc="http://purl.org/dc/elements/1.1/" xmlns:cc="http://creativecommons.org/ns#" xmlns:rdf="http://www.w3.org/1999/02/22-rdf-syntax-ns#" xmlns:svg="http://www.w3.org/2000/svg" xmlns="http://www.w3.org/2000/svg" xmlns:xlink="http://www.w3.org/1999/xlink" id="svg30272" viewBox="0 0 1024 768" height="768px" width="1024px" style="width: 150px;" version="1.1">
  <metadata id="metadata30278">
    <rdf:rdf>
      <cc:work rdf:about="">
        <dc:format>image/svg+xml</dc:format>
        <dc:type rdf:resource="http://purl.org/dc/dcmitype/StillImage"></dc:type>
      </cc:work>
    </rdf:rdf>
  </metadata>
  <defs id="defs30276"></defs>
  <linearGradient spreadMethod="pad" y2="30%" x2="-10%" y1="120%" x1="30%" id="3d_gradient2-logo-e80cdeb6-e790-4838-bf23-1cfcb25efe3f">
    <stop id="stop30253" stop-opacity="1" stop-color="#ffffff" offset="0%"></stop>
    <stop id="stop30255" stop-opacity="1" stop-color="#000000" offset="100%"></stop>
  </linearGradient>
  <linearGradient gradientTransform="rotate(-30)" spreadMethod="pad" y2="30%" x2="-10%" y1="120%" x1="30%" id="3d_gradient3-logo-e80cdeb6-e790-4838-bf23-1cfcb25efe3f">
    <stop id="stop30258" stop-opacity="1" stop-color="#ffffff" offset="0%"></stop>
    <stop id="stop30260" stop-opacity="1" stop-color="#cccccc" offset="50%"></stop>
    <stop id="stop30262" stop-opacity="1" stop-color="#000000" offset="100%"></stop>
  </linearGradient>
  <g id="logo-group">
    <image xlink:href="" id="container" x="272" y="144" width="480" height="480" style="display: none;" transform="translate(0 0)"></image>
    <g id="logo-center" transform="translate(259.68730899999997 0)">
      <image xlink:href="" id="icon_container" style="display: none;" x="0" y="0"></image>
      <g id="slogan" style="font-style:normal;font-weight:700;font-size:32px;line-height:1;font-family:'Brandmark1 Bold';font-variant-ligatures:none;text-align:center;text-anchor:middle" transform="translate(0 0)"></g>
      <g id="title" style="font-style:normal;font-weight:700;font-size:72px;line-height:1;font-family:'Brandmark1 Bold';font-variant-ligatures:normal;text-align:center;text-anchor:middle" transform="translate(0 0)">
        <path id="path30281" style="font-style:normal;font-weight:700;font-size:72px;line-height:1;font-family:'Brandmark1 Bold';font-variant-ligatures:normal;text-align:center;text-anchor:middle" d="M 386.96188,-53.64 H 367.73787 V 2.52 h 21.168 c 6.192,0 11.088,-1.512 14.54401,-4.536 3.31199,-2.88 5.03999,-6.984 5.03999,-11.88 0,-4.104 -1.296,-7.704 -3.744,-10.512 -1.00799,-1.152 -2.304,-2.16 -3.744,-3.024 1.00801,-0.792 1.872,-1.8 2.59201,-2.88 1.584,-2.448 2.37599,-5.328 2.37599,-8.352 0,-2.52 -0.504,-4.752 -1.44,-6.696 -0.93599,-1.944 -2.304,-3.6 -4.17599,-4.896 -3.16801,-2.232 -7.70401,-3.384 -13.392,-3.384 z m 1.368,45.432 h -9.28801 v -12.888 h 8.352 c 3.24,0 5.832,0.648 7.416,1.872 1.44,1.152 2.088,2.664 2.088,4.824 0,2.016 -0.648,3.528 -2.016,4.536 -1.44,1.08 -3.672,1.656 -6.55199,1.656 z m -1.296,-23.4 h -7.99201 v -11.304 l 7.272,-0.072 c 3.024,0 5.25601,0.576 6.62401,1.656 0.35999,0.288 1.584,1.296 1.584,3.888 0,2.016 -0.64801,3.528 -1.94401,4.464 -1.29599,0.864 -3.24,1.368 -5.54399,1.368 z" stroke-width="0" stroke-linejoin="miter" stroke-miterlimit="2" fill="#25315d" stroke="#25315d" transform="translate(0 315.0784) translate(50 30.41600000000001) scale(1.4) translate(-367.73787 53.64)"></path>
        <path id="path30283" style="font-style:normal;font-weight:700;font-size:72px;line-height:1;font-family:'Brandmark1 Bold';font-variant-ligatures:normal;text-align:center;text-anchor:middle" d="m 429.641,2.736 c 2.88,0 5.616,-0.576 8.208,-1.656 2.448,-1.152 4.68,-2.664 6.552,-4.68 l -7.56,-7.2 c -1.872,2.016 -4.464,3.096 -7.2,3.096 -3.528,0 -6.552,-1.8 -8.352,-4.608 h 28.656 v -5.184 c 0,-5.472 -2.088,-10.512 -5.976,-14.4 -3.816,-3.816 -8.928,-5.904 -14.328,-5.904 -5.4,0 -10.512,2.088 -14.328,5.904 -3.816,3.888 -5.976,8.928 -5.976,14.4 0,5.4 2.16,10.512 5.976,14.328 3.816,3.816 8.928,5.904 14.328,5.904 z m 8.352,-25.488 h -16.704 c 1.8,-2.736 4.824,-4.608 8.352,-4.608 3.528,0 6.624,1.872 8.352,4.608 z" stroke-width="0" stroke-linejoin="miter" stroke-miterlimit="2" fill="#2b356d" stroke="#2b356d" transform="translate(0 315.0784) translate(108.23878199999999 52.592000000000006) scale(1.4) translate(-409.337 37.8)"></path>
        <path id="path30285" style="font-style:normal;font-weight:700;font-size:72px;line-height:1;font-family:'Brandmark1 Bold';font-variant-ligatures:normal;text-align:center;text-anchor:middle" d="m 450.50187,2.952 h 16.848 c 7.272,0 13.176,-5.904 13.176,-13.176 0,-7.272 -5.904,-13.248 -13.176,-13.248 h -3.024 c -1.00799,0 -1.872,-0.792 -1.872,-1.872 0,-1.008 0.86401,-1.872 1.872,-1.872 h 15.048 V -38.52 h -15.048 c -7.272,0 -13.176,5.904 -13.176,13.176 0,7.272 5.904,13.176 13.176,13.176 h 3.024 c 1.008,0 1.872,0.864 1.872,1.944 0,1.008 -0.792,1.872 -1.872,1.872 h -16.848 z" stroke-width="0" stroke-linejoin="miter" stroke-miterlimit="2" fill="#31397e" stroke="#31397e" transform="translate(0 315.0784) translate(165.86959999999996 51.583999999999996) scale(1.4) translate(-450.50187 38.52)"></path>
        <path id="path30287" style="font-style:normal;font-weight:700;font-size:72px;line-height:1;font-family:'Brandmark1 Bold';font-variant-ligatures:normal;text-align:center;text-anchor:middle" d="m 495.46587,-19.008 v -8.496 h 11.44801 v -10.08 h -11.44801 v -12.888 l -10.79999,3.6 v 27.864 c 0,3.024 0.57599,5.976 1.72799,8.712 1.15201,2.664 2.73601,5.04 4.824,7.056 2.016,2.016 4.392,3.672 7.056,4.752 2.73601,1.152 5.61601,1.728 8.64001,1.728 v -10.8 c -6.33601,0 -11.44801,-5.112 -11.44801,-11.448 z" stroke-width="0" stroke-linejoin="miter" stroke-miterlimit="2" fill="#373d8e" stroke="#373d8e" transform="translate(0 315.0784) translate(213.69921399999998 34.851200000000006) scale(1.4) translate(-484.66588 50.472)"></path>
        <path id="path30289" style="font-style:normal;font-weight:700;font-size:72px;line-height:1;font-family:'Brandmark1 Bold';font-variant-ligatures:normal;text-align:center;text-anchor:middle" d="m 510.7535,2.592 h 18.432 c 3.816,0 7.56,-0.72 11.016,-2.16 3.384,-1.44 6.408,-3.456 9,-6.048 2.664,-2.52 4.68,-5.544 6.12,-8.928 1.512,-3.456 2.232,-7.2 2.232,-11.016 0,-3.816 -0.72,-7.56 -2.232,-11.016 -1.44,-3.384 -3.528,-6.336 -6.12,-8.928 -2.592,-2.592 -5.616,-4.608 -9,-5.976 -3.528,-1.44 -7.2,-2.16 -11.016,-2.16 h -18.432 z m 18.432,-11.304 h -7.128 v -33.624 h 7.128 c 4.608,0 8.928,1.728 12.096,4.896 3.24,3.168 4.968,7.344 4.968,11.88 0,4.536 -1.728,8.784 -4.968,11.952 -3.24,3.168 -7.488,4.896 -12.096,4.896 z" stroke-width="0" stroke-linejoin="miter" stroke-miterlimit="2" fill="#3c409f" stroke="#3c409f" transform="translate(0 315.0784) translate(250.22188199999994 30.41600000000001) scale(1.4) translate(-510.7535 53.64)"></path>
        <path id="path30291" style="font-style:normal;font-weight:700;font-size:72px;line-height:1;font-family:'Brandmark1 Bold';font-variant-ligatures:normal;text-align:center;text-anchor:middle" d="m 579.266,2.736 c 2.88,0 5.616,-0.576 8.208,-1.656 2.448,-1.152 4.68,-2.664 6.552,-4.68 l -7.56,-7.2 c -1.872,2.016 -4.464,3.096 -7.2,3.096 -3.528,0 -6.552,-1.8 -8.352,-4.608 h 28.656 v -5.184 c 0,-5.472 -2.088,-10.512 -5.976,-14.4 -3.816,-3.816 -8.928,-5.904 -14.328,-5.904 -5.4,0 -10.512,2.088 -14.328,5.904 -3.816,3.888 -5.976,8.928 -5.976,14.4 0,5.4 2.16,10.512 5.976,14.328 3.816,3.816 8.928,5.904 14.328,5.904 z m 8.352,-25.488 h -16.704 c 1.8,-2.736 4.824,-4.608 8.352,-4.608 3.528,0 6.624,1.872 8.352,4.608 z" stroke-width="0" stroke-linejoin="miter" stroke-miterlimit="2" fill="#4244af" stroke="#4244af" transform="translate(0 315.0784) translate(317.7137819999999 52.592000000000006) scale(1.4) translate(-558.962 37.8)"></path>
        <path id="path30293" style="font-style:normal;font-weight:700;font-size:72px;line-height:1;font-family:'Brandmark1 Bold';font-variant-ligatures:normal;text-align:center;text-anchor:middle" d="m 640.23087,-38.016 h -10.79999 v 2.232 c -2.808,-1.44 -5.976,-2.232 -9.21601,-2.232 -2.80799,0 -5.47199,0.576 -7.99199,1.656 -2.44801,1.008 -4.68001,2.52 -6.552,4.392 -1.87201,1.872 -3.38401,4.032 -4.39201,6.48 -1.07999,2.592 -1.58399,5.256 -1.58399,7.992 0,2.808 0.504,5.472 1.58399,7.992 1.008,2.448 2.52,4.68 4.39201,6.552 1.87199,1.872 4.10399,3.384 6.552,4.392 2.52,1.08 5.184,1.584 7.99199,1.584 3.16801,0 6.40801,-0.72 9.21601,-2.16 V 2.52 h 10.79999 z m -15.12,28.944 c -1.51199,0.864 -3.168,1.296 -4.896,1.296 -5.39999,0 -9.72,-4.32 -9.72,-9.72 0,-5.328 4.32001,-9.72 9.72,-9.72 1.872,0 3.67201,0.576 5.256,1.584 1.51201,1.008 2.736,2.376 3.528,4.032 0.57601,1.296 0.86401,2.664 0.86401,4.176 0,1.656 -0.432,3.384 -1.29601,4.824 -0.792,1.44 -2.01599,2.664 -3.456,3.528 z" stroke-width="0" stroke-linejoin="miter" stroke-miterlimit="2" fill="#4848c0" stroke="#4848c0" transform="translate(0 315.0784) translate(374.739814 52.28960000000001) scale(1.4) translate(-599.69488 38.016)"></path>
        <path id="path30295" style="font-style:normal;font-weight:700;font-size:72px;line-height:1;font-family:'Brandmark1 Bold';font-variant-ligatures:normal;text-align:center;text-anchor:middle" d="M 645.884,-51.912 V 2.52 h 10.872 v -58.032 z" stroke-width="0" stroke-linejoin="miter" stroke-miterlimit="2" fill="#4e4cd0" stroke="#4e4cd0" transform="translate(0 315.0784) translate(439.40458200000006 27.79520000000001) scale(1.4) translate(-645.884 55.512)"></path>
      </g>
      <image xlink:href="" id="icon" style="display: none;" x="0" y="0"></image>
    </g>
  </g>
</svg>